<?xml version="1.0" standalone="no"?><svg xmlns="http://www.w3.org/2000/svg" viewBox="0 0 1440 320"><path fill="#FED700" fill-opacity="0.9" d="M0,288L30,256C60,224,120,160,180,160C240,160,300,224,360,229.3C420,235,480,181,540,138.7C600,96,660,64,720,80C780,96,840,160,900,202.7C960,245,1020,267,1080,240C1140,213,1200,139,1260,133.3C1320,128,1380,192,1410,224L1440,256L1440,320L1410,320C1380,320,1320,320,1260,320C1200,320,1140,320,1080,320C1020,320,960,320,900,320C840,320,780,320,720,320C660,320,600,320,540,320C480,320,420,320,360,320C300,320,240,320,180,320C120,320,60,320,30,320L0,320Z"></path></svg>