<?xml version="1.0" standalone="no"?><svg xmlns="http://www.w3.org/2000/svg" viewBox="0 0 1440 320"><path fill="#FED700" fill-opacity="0.35" d="M0,128L26.7,149.3C53.3,171,107,213,160,197.3C213.3,181,267,107,320,96C373.3,85,427,139,480,181.3C533.3,224,587,256,640,266.7C693.3,277,747,267,800,224C853.3,181,907,107,960,106.7C1013.3,107,1067,181,1120,192C1173.3,203,1227,149,1280,149.3C1333.3,149,1387,203,1413,229.3L1440,256L1440,320L1413.3,320C1386.7,320,1333,320,1280,320C1226.7,320,1173,320,1120,320C1066.7,320,1013,320,960,320C906.7,320,853,320,800,320C746.7,320,693,320,640,320C586.7,320,533,320,480,320C426.7,320,373,320,320,320C266.7,320,213,320,160,320C106.7,320,53,320,27,320L0,320Z"></path></svg>